<svg xmlns="http://www.w3.org/2000/svg" viewBox="0 0 64 64" fill="none">
  <defs>
    <linearGradient id="bg" x1="0" y1="0" x2="1" y2="1">
      <stop offset="0" stop-color="#4f46e5" />
      <stop offset="1" stop-color="#0ea5e9" />
    </linearGradient>
    <linearGradient id="belly" x1="0" y1="0" x2="0" y2="1">
      <stop offset="0" stop-color="#ffffff" />
      <stop offset="1" stop-color="#e6ebf4" />
    </linearGradient>
  </defs>

  <!-- brand rounded-square -->
  <rect width="64" height="64" rx="15" fill="url(#bg)" />

  <!-- Kubernetes helm (7-spoke wheel) accent -->
  <g stroke="#ffffff" stroke-opacity="0.28" stroke-width="1.6" stroke-linejoin="round" fill="none">
    <polygon points="32,9 51.7,16.6 56,37.2 43,53.5 21,53.5 8,37.2 12.3,16.6" />
    <g stroke-width="1.3">
      <path d="M32 32 32 14" />
      <path d="M32 32 48.5 21" />
      <path d="M32 32 49 39" />
      <path d="M32 32 39 50" />
      <path d="M32 32 25 50" />
      <path d="M32 32 15 39" />
      <path d="M32 32 15.5 21" />
    </g>
  </g>

  <!-- Tux -->
  <g>
    <!-- body -->
    <ellipse cx="32" cy="35" rx="13.5" ry="16" fill="#13131a" />
    <!-- belly -->
    <ellipse cx="32" cy="38.5" rx="8.4" ry="12" fill="url(#belly)" />
    <!-- feet -->
    <ellipse cx="26" cy="51.5" rx="4.2" ry="2.1" fill="#f59e0b" />
    <ellipse cx="38" cy="51.5" rx="4.2" ry="2.1" fill="#f59e0b" />
    <!-- shades -->
    <rect x="20.5" y="25" width="23" height="6.6" rx="3.3" fill="#0a0e1c" />
    <rect x="22" y="26.3" width="9" height="4" rx="2" fill="#0e2748" />
    <rect x="33" y="26.3" width="9" height="4" rx="2" fill="#0e2748" />
    <!-- glowing eyes -->
    <circle cx="26.5" cy="28.3" r="1.7" fill="#22d3ee" />
    <circle cx="37.5" cy="28.3" r="1.7" fill="#22d3ee" />
    <!-- beak -->
    <path d="M32 33.5l4 3-4 2.6-4-2.6z" fill="#f59e0b" />
  </g>
</svg>
